# xmcd CD database file
#
# Track frame offsets:
#	150
#	36013
#	63053
#	95886
#	108701
#	119753
#	130507
#	165770
#	176215
#	200101
#	221867
#	261141
#
# Disc length: 4051 seconds
#
# Revision: 0
# Processed by: cddbd v1.5.2PL0 Copyright (c) Steve Scherf et al.
# Submitted via: CDex 1.70beta2
#
DISCID=b40fd10c
DTITLE=Various Artist - Jazz Roads CD137 - Swing - Coleman Hawkins And Roy Eldridge
DYEAR=2006
DGENRE=Jazz
TTITLE0=Coleman Hawkins+Roy Eldridge - Bean Stalkin'
TTITLE1=Coleman Hawkins+Roy Eldridge - Tea For Two
TTITLE2=Coleman Hawkins+Roy Eldridge - The Walker
TTITLE3=Coleman Hawkins+Roy Eldridge - The Nearness Of You
TTITLE4=Coleman Hawkins+Roy Eldridge - Time On My Hands
TTITLE5=Coleman Hawkins+Roy Eldridge - Blue Moon
TTITLE6=Coleman Hawkins+Roy Eldridge - Kerry
TTITLE7=Coleman Hawkins+Roy Eldridge - Cocktails For Two
TTITLE8=Coleman Hawkins And His Confreres - Sunday
TTITLE9=Coleman Hawkins And His Confreres - Hanid
TTITLE10=Coleman Hawkins And His Confreres - Honey Flower
TTITLE11=Coleman Hawkins And His Confreres - Nabob
EXTD=YEAR: 2006
EXTT0=
EXTT1=
EXTT2=
EXTT3=
EXTT4=
EXTT5=
EXTT6=
EXTT7=
EXTT8=
EXTT9=
EXTT10=
EXTT11=
PLAYORDER=
